<svg width="335" height="101" viewBox="0 0 335 101" fill="none" xmlns="http://www.w3.org/2000/svg">
<g clip-path="url(#clip0_393_2814)">
<path d="M92.4512 48.9998C92.4512 52.9966 95.3652 55.7443 99.1954 55.7443C103.275 55.7443 106.189 53.1633 106.189 48.9998C106.189 44.837 103.275 41.9227 99.1954 41.9227C95.4481 41.9227 92.5346 44.837 92.4512 48.9998ZM120.511 33.5135V42.089H114.849C115.765 44.1707 116.264 46.5025 116.264 48.9998C116.264 55.328 113.1 60.3241 108.271 62.988L120.094 70.6484C120.011 81.722 112.684 90.6312 100.278 90.6312C88.8707 90.6312 80.794 83.4712 80.7114 72.6465H90.9524C90.9524 76.3104 93.8663 80.8894 100.278 80.8894C105.773 80.8894 108.355 77.8925 109.27 74.8119L90.4528 62.988C85.6238 60.3241 82.3761 55.328 82.3761 48.9998C82.3761 39.1754 89.9532 32.5146 99.362 32.5146C101.527 32.5146 103.525 32.8468 105.439 33.5135H120.511Z" fill="#1B1C36"/>
<path d="M155.813 53.1633C155.813 46.8358 151.15 42.256 144.906 42.256C138.745 42.256 134.165 46.8358 134.165 53.1633C134.165 59.4074 138.827 63.9043 144.906 63.9043C151.15 63.9043 155.813 59.3253 155.813 53.1633ZM123.674 53.1633C123.674 41.0072 133.082 32.5146 144.989 32.5146C156.895 32.5146 166.304 41.0902 166.304 53.1633C166.304 65.0698 156.895 73.6461 144.906 73.6461C133.082 73.6461 123.674 65.1531 123.674 53.1633Z" fill="#1B1C36"/>
<path d="M202.356 46.5025V72.6465H191.948V47.7513C191.948 44.5878 190.033 42.1727 186.452 42.1727C184.288 42.1727 182.372 43.5049 181.54 45.2533V72.6465H171.132V33.5135H181.54V35.2619C183.372 33.6798 185.952 32.5146 189.284 32.5146C197.526 32.5146 202.356 38.6758 202.356 46.5025Z" fill="#1B1C36"/>
<path d="M237.745 59.4912V46.7525C235.996 44.3378 232.666 42.256 228.752 42.256C222.508 42.256 217.928 46.918 217.928 52.9966C217.928 59.3253 222.508 63.9043 228.752 63.9043C232.749 63.9043 235.996 61.9062 237.745 59.4912ZM237.745 33.5135H248.152V72.6465H237.911V71.398C234.997 72.8965 231.666 73.6453 228.086 73.6453C216.679 73.6453 207.437 65.0698 207.437 52.9966C207.437 41.0902 216.679 32.5146 228.086 32.5146C231.666 32.5146 234.914 33.3468 237.745 34.9286V33.5135Z" fill="#1B1C36"/>
<path d="M286.119 46.5025V72.6465H275.711V47.7513C275.711 44.5878 273.796 42.1727 270.215 42.1727C268.051 42.1727 266.136 43.5049 265.303 45.2533V72.6465H254.896V33.5135H265.303V35.2619C267.136 33.6798 269.716 32.5146 273.046 32.5146C281.29 32.5146 286.119 38.6758 286.119 46.5025Z" fill="#1B1C36"/>
<path d="M323.334 53.1633C323.334 46.8358 318.671 42.256 312.427 42.256C306.265 42.256 301.686 46.8358 301.686 53.1633C301.686 59.4074 306.349 63.9043 312.427 63.9043C318.671 63.9043 323.334 59.3253 323.334 53.1633ZM291.194 53.1633C291.194 41.0072 300.603 32.5146 312.51 32.5146C324.417 32.5146 333.825 41.0902 333.825 53.1633C333.825 65.0698 324.417 73.6461 312.427 73.6461C300.603 73.6461 291.194 65.1531 291.194 53.1633Z" fill="#1B1C36"/>
<path d="M22.9328 3.19842C18.8468 7.28524 18.7759 13.853 22.6996 18.0363H22.684C29.2727 25.0846 29.2727 36.0331 22.684 43.0806H22.6996C18.8557 47.1807 18.8546 53.5623 22.6996 57.6623L22.684 57.6604C29.2727 64.7086 29.2727 75.6576 22.6828 82.7035H22.6992C18.7763 86.8892 18.8456 93.4585 22.932 97.5426C27.101 101.711 33.8588 101.711 38.0258 97.5426C42.113 93.4585 42.1835 86.8892 38.2602 82.7035H38.2762C31.6851 75.6564 31.6851 64.7086 38.2762 57.6604L38.2602 57.6623C42.1021 53.5623 42.1021 47.1807 38.2602 43.0806H38.2746C31.6851 36.0331 31.6851 25.0834 38.2746 18.0363L38.2602 18.0375C42.1835 13.853 42.113 7.28524 38.0258 3.19842C35.9429 1.11432 33.2112 0.0722656 30.4803 0.0722656C27.7486 0.0722656 25.0169 1.11432 22.9328 3.19842Z" fill="url(#paint0_linear_393_2814)"/>
<path d="M42.7449 23.0109C38.6593 27.0977 38.5892 33.6658 42.5124 37.85H42.4961C49.0856 44.8971 49.0856 55.8453 42.4961 62.8931H42.5124C38.5892 67.0777 38.6593 73.6454 42.7449 77.7299C46.9139 81.8989 53.6728 81.9 57.8399 77.7299C61.9263 73.6454 61.9972 67.0777 58.0723 62.8931H58.0902C51.4992 55.8453 51.4992 44.8971 58.0879 37.85H58.0723C61.9972 33.6658 61.9263 27.0977 57.8399 23.0109C55.7561 20.9272 53.0241 19.8852 50.2924 19.8848C47.5607 19.8848 44.829 20.9268 42.7449 23.0109Z" fill="url(#paint1_linear_393_2814)"/>
<path d="M3.12041 23.0109C-0.964853 27.0977 -1.03534 33.6659 2.88871 37.8481L2.87235 37.85C9.46266 44.8967 9.46266 55.8449 2.87391 62.8919H2.88871C-1.03378 67.0777 -0.964853 73.6442 3.12196 77.7299C7.28939 81.8989 14.0483 81.8989 18.2161 77.7299C22.3029 73.6442 22.3719 67.0777 18.4494 62.8919L18.465 62.8908C11.8758 55.8449 11.8758 44.8952 18.4661 37.85L18.4486 37.8492C22.3719 33.6658 22.3029 27.0977 18.2161 23.0109C16.1324 20.9268 13.4007 19.8852 10.6694 19.8848C7.93697 19.8848 5.20529 20.9268 3.12041 23.0109Z" fill="url(#paint2_linear_393_2814)"/>
</g>
<defs>
<linearGradient id="paint0_linear_393_2814" x1="19.8112" y1="50.3707" x2="41.1482" y2="50.3707" gradientUnits="userSpaceOnUse">
<stop stop-color="#675CE7"/>
<stop offset="1" stop-color="#8583F2"/>
</linearGradient>
<linearGradient id="paint1_linear_393_2814" x1="39.6246" y1="50.3706" x2="60.9618" y2="50.3706" gradientUnits="userSpaceOnUse">
<stop stop-color="#675CE7"/>
<stop offset="1" stop-color="#8583F2"/>
</linearGradient>
<linearGradient id="paint2_linear_393_2814" x1="0.000337843" y1="50.3706" x2="21.3376" y2="50.3706" gradientUnits="userSpaceOnUse">
<stop stop-color="#675CE7"/>
<stop offset="1" stop-color="#8583F2"/>
</linearGradient>
<clipPath id="clip0_393_2814">
<rect width="334.11" height="100.856" fill="white" transform="translate(0 0.0722656)"/>
</clipPath>
</defs>
</svg>
